<?xml version="1.0" encoding="UTF-8" standalone="no"?><!-- Generator: Gravit.io --><svg xmlns="http://www.w3.org/2000/svg" xmlns:xlink="http://www.w3.org/1999/xlink" style="isolation:isolate" viewBox="0 0 533 59" width="533pt" height="59pt"><defs><clipPath id="_clipPath_SdT2CCY5vxZfGD0jQQQiQkwTVHRzklmf"><rect width="533" height="59"/></clipPath></defs><g clip-path="url(#_clipPath_SdT2CCY5vxZfGD0jQQQiQkwTVHRzklmf)"><g><path d=" M 262.123 59 L 288.65 0.952 L 278.339 0.952 L 251.812 59 L 262.123 59 Z " fill="rgb(24,24,27)"/><path d=" M 261.7 19.479 L 270.167 0.952 L 259.856 0.952 L 251.49 19.259 L 261.7 19.479 Z " fill="rgb(24,24,27)"/><path d=" M 27.006 58.375 C 42.679 58.375 51.198 52.428 51.198 41.738 C 51.198 32.736 44.768 27.19 31.828 25.02 L 22.826 23.654 C 15.994 22.448 13.101 20.439 13.101 16.34 C 13.101 12.321 17.763 9.267 25.961 9.267 L 27.247 9.267 C 35.686 9.267 40.991 12.643 41.875 18.671 L 52.323 18.671 C 51.198 7.499 41.955 0.506 26.604 0.506 C 10.77 0.506 3.135 8.061 3.135 16.822 C 3.135 26.788 8.52 30.968 21.299 33.218 L 30.06 34.585 C 38.017 35.951 41.232 38.282 41.232 42.22 C 41.232 46.801 36.892 49.615 27.568 49.615 L 26.282 49.615 C 16.557 49.615 10.69 45.998 10.449 39.005 L 0 39.005 C 0.161 51.785 10.368 58.375 27.006 58.375 Z  M 111.253 57.571 L 111.253 48.81 L 71.227 48.81 L 71.227 32.977 L 105.627 32.977 L 105.627 24.216 L 71.227 24.216 L 71.227 10.07 L 110.449 10.07 L 110.449 1.309 L 61.341 1.309 L 61.341 57.571 L 111.253 57.571 Z  M 170.343 48.81 L 170.343 57.571 L 120.43 57.571 L 120.43 1.309 L 169.539 1.309 L 169.539 10.07 L 130.316 10.07 L 130.316 24.216 L 164.716 24.216 L 164.716 32.977 L 130.316 32.977 L 130.316 48.81 L 170.343 48.81 Z  M 206.125 57.571 C 223.968 57.571 235.22 47.042 235.22 29.44 C 235.22 11.838 223.968 1.309 206.125 1.309 L 179.521 1.309 L 179.521 57.571 L 206.125 57.571 Z  M 189.407 48.81 L 205.321 48.81 C 218.502 48.81 225.254 42.22 225.254 29.44 C 225.254 16.661 218.502 10.07 205.321 10.07 L 189.407 10.07 L 189.407 48.81 Z " fill-rule="evenodd" fill="rgb(24,24,27)"/><path d=" M 359.65 39.407 C 357.882 50.579 347.675 58.375 332.163 58.375 C 313.114 58.375 301.219 46.238 301.219 29.44 C 300.977 13.044 313.677 0.345 332.163 0.506 C 348.077 0.506 358.043 9.106 359.65 19.474 L 349.202 19.474 C 347.755 13.044 341.004 9.266 332.806 9.266 L 331.52 9.266 C 318.981 9.266 311.185 18.108 311.185 29.44 C 311.185 40.853 318.981 49.614 331.52 49.614 L 332.806 49.614 C 341.245 49.614 347.594 46.078 349.202 39.407 L 359.65 39.407 Z  M 416.731 48.81 L 416.731 57.571 L 368.587 57.571 L 368.587 1.309 L 378.473 1.309 L 378.473 48.81 L 416.731 48.81 Z  M 445.038 58.375 C 461.434 58.375 470.275 49.453 470.275 35.388 L 470.275 1.309 L 460.389 1.309 L 460.389 34.745 C 460.389 44.39 455.245 49.614 445.681 49.614 L 444.395 49.614 C 434.83 49.614 429.767 44.39 429.767 34.745 L 429.767 1.309 L 419.8 1.309 L 419.8 35.388 C 419.8 49.534 428.32 58.375 445.038 58.375 Z  M 532.982 42.3 C 532.982 51.543 525.106 57.571 515.139 57.571 L 482.508 57.571 L 482.508 1.309 L 514.175 1.309 C 524.061 1.309 531.616 7.096 531.616 16.178 C 531.616 22.367 527.597 27.19 522.694 28.958 C 528.562 30.244 532.982 35.227 532.982 42.3 Z  M 512.969 24.618 L 492.394 24.618 L 492.394 10.07 L 512.969 10.07 C 518.354 10.07 521.65 12.803 521.65 17.223 C 521.65 21.966 518.435 24.618 512.969 24.618 Z  M 492.394 48.81 L 513.532 48.81 C 519.399 48.81 523.016 45.837 523.016 40.934 C 523.016 36.111 519.399 33.459 513.532 33.459 L 492.394 33.459 L 492.394 48.81 Z " fill-rule="evenodd" fill="rgb(24,24,27)"/></g></g></svg>