<?xml version="1.0" encoding="utf-8"?>
<!-- Generator: Adobe Illustrator 25.4.1, SVG Export Plug-In . SVG Version: 6.00 Build 0)  -->
<svg version="1.1" id="Layer_1" xmlns="http://www.w3.org/2000/svg" xmlns:xlink="http://www.w3.org/1999/xlink" x="0px" y="0px"
	 viewBox="0 0 552 60" style="enable-background:new 0 0 552 60;" xml:space="preserve">
<style type="text/css">
	.st0{clip-path:url(#SVGID_00000171683181828217213770000016628102781207975067_);}
	.st1{fill-rule:evenodd;clip-rule:evenodd;}
</style>
<g>
	<defs>
		<rect id="SVGID_1_" width="552" height="60"/>
	</defs>
	<clipPath id="SVGID_00000040532880449618686700000013662432313039521938_">
		<use xlink:href="#SVGID_1_"  style="overflow:visible;"/>
	</clipPath>
	<g style="clip-path:url(#SVGID_00000040532880449618686700000013662432313039521938_);">
		<path d="M272.5,59.5l26.7-58.4h-10.4l-26.7,58.4H272.5z"/>
		<path d="M272.1,19.7l8.5-18.6h-10.4l-8.4,18.4L272.1,19.7z"/>
		<path class="st1" d="M27.9,60C44.2,60,53,53.8,53,42.8c0-9.3-6.7-15.1-20.1-17.3L23.6,24c-7.1-1.3-10.1-3.3-10.1-7.6
			s4.8-7.3,13.3-7.3h1.3c8.7,0,14.2,3.5,15.2,9.7h10.8C53,7.2,43.4,0,27.5,0C11.1,0,3.2,7.8,3.2,16.9c0,10.3,5.6,14.7,18.8,17
			l9.1,1.4c8.2,1.4,11.6,3.8,11.6,7.9c0,4.8-4.5,7.7-14.2,7.7h-1.3c-10.1,0-16.2-3.8-16.4-11H0C0.1,53.2,10.7,60,27.9,60z
			 M115.2,59.2v-9.1H73.8V33.6h35.6v-9.1H73.8V9.9h40.6V0.8H63.5v58.3L115.2,59.2z M176.4,50.1v9.1h-51.7V0.8h50.9v9.1H135v14.7
			h35.6v9.1H135v16.4L176.4,50.1z M213.5,59.2c18.5,0,30.1-10.9,30.1-29.2c0-18.2-11.7-29.2-30.1-29.2h-27.6v58.3H213.5z
			 M196.2,50.1h16.5c13.7,0,20.6-6.8,20.6-20.1s-7-20.1-20.7-20.1h-16.5L196.2,50.1z"/>
		<path class="st1" d="M372.5,40.3C370.6,51.9,360.1,60,344,60c-19.7,0-32-12.6-32-30c-0.2-17,12.9-30.2,32-30
			c16.5,0,26.8,8.9,28.5,19.7h-10.8c-1.5-6.7-8.5-10.6-17-10.6h-1.3c-13,0-21.1,9.2-21.1,20.9c0,11.8,8.1,20.9,21.1,20.9h1.3
			c8.7,0,15.3-3.7,17-10.6H372.5z M431.6,50.1v9.1h-49.9V0.8H392v49.2H431.6z M460.9,60c17,0,26.1-9.3,26.1-23.8V0.8h-10.2v34.7
			c0,10-5.3,15.4-15.2,15.4h-1.3c-9.9,0-15.2-5.4-15.2-15.4V0.8h-10.3v35.3C434.8,50.8,443.6,60,460.9,60z M552,43.3
			c0,9.6-8.2,15.8-18.5,15.8h-33.8V0.8h32.8c10.2,0,18.1,6,18.1,15.4c0,2.9-0.9,5.7-2.5,8.1c-1.7,2.4-4,4.2-6.7,5.2
			C547.4,30.8,552,36,552,43.3z M531.3,25H510V9.9h21.3c5.6,0,9,2.8,9,7.4C540.3,22.3,536.9,25,531.3,25L531.3,25z M510,50.1h21.9
			c6.1,0,9.8-3.1,9.8-8.2s-3.7-7.7-9.8-7.7H510V50.1z"/>
	</g>
</g>
</svg>
