<?xml version="1.0" encoding="UTF-8" standalone="no"?><!-- Generator: Gravit.io --><svg xmlns="http://www.w3.org/2000/svg" xmlns:xlink="http://www.w3.org/1999/xlink" style="isolation:isolate" viewBox="0 0 124 64" width="124pt" height="64pt"><defs><clipPath id="_clipPath_Z2DFek5xybOUglahc3MJcnOPJnsntbAl"><rect width="124" height="64"/></clipPath></defs><g clip-path="url(#_clipPath_Z2DFek5xybOUglahc3MJcnOPJnsntbAl)"><path d=" M 30.798 54.239 C 29.83 60.144 24.486 64.267 16.29 64.267 C 6.262 64.267 0.001 57.853 0.001 48.996 C -0.101 40.343 6.568 33.623 16.29 33.725 C 24.689 33.725 29.932 38.256 30.798 43.753 L 25.3 43.753 C 24.536 40.343 20.973 38.357 16.646 38.357 L 15.985 38.357 C 9.367 38.357 5.244 43.041 5.244 48.996 C 5.244 55.003 9.367 59.635 15.985 59.635 L 16.646 59.635 C 21.075 59.635 24.435 57.752 25.3 54.239 L 30.798 54.239 Z  M 60.881 59.228 L 60.881 63.86 L 35.481 63.86 L 35.481 34.133 L 40.724 34.133 L 40.724 59.177 L 60.881 59.177 L 60.881 59.228 Z  M 75.796 64.267 C 84.449 64.267 89.082 59.533 89.082 52.152 L 89.082 34.133 L 83.889 34.133 L 83.889 51.796 C 83.889 56.886 81.192 59.635 76.152 59.635 L 75.49 59.635 C 70.451 59.635 67.753 56.886 67.753 51.796 L 67.753 34.133 L 62.51 34.133 L 62.51 52.101 C 62.51 59.584 66.99 64.267 75.796 64.267 Z  M 122.169 55.766 C 122.169 60.653 117.995 63.809 112.752 63.809 L 95.546 63.809 L 95.546 34.133 L 112.243 34.133 C 117.435 34.133 121.456 37.187 121.456 41.972 C 121.456 43.448 120.998 44.873 120.183 46.095 C 119.318 47.316 118.147 48.233 116.773 48.742 C 119.827 49.403 122.169 52.05 122.169 55.766 Z  M 111.632 46.451 L 100.789 46.451 L 100.789 38.765 L 111.632 38.765 C 114.482 38.765 116.213 40.19 116.213 42.532 C 116.213 45.077 114.482 46.451 111.632 46.451 L 111.632 46.451 Z  M 100.789 59.228 L 111.937 59.228 C 115.042 59.228 116.926 57.65 116.926 55.054 C 116.926 52.458 115.042 51.134 111.937 51.134 L 100.789 51.134 L 100.789 59.228 Z " fill-rule="evenodd" fill="rgb(0,0,0)"/><path d=" M 14.202 30.542 C 22.499 30.542 26.979 27.386 26.979 21.787 C 26.979 17.053 23.568 14.1 16.747 12.98 L 12.013 12.217 C 8.399 11.555 6.872 10.537 6.872 8.348 C 6.872 6.159 9.315 4.632 13.642 4.632 L 14.304 4.632 C 18.732 4.632 21.532 6.414 22.041 9.57 L 27.539 9.57 C 26.979 3.665 22.092 0 13.998 0 C 5.65 0 1.629 3.97 1.629 8.603 C 1.629 13.846 4.479 16.085 11.199 17.256 L 15.831 17.969 C 20.005 18.681 21.736 19.903 21.736 21.99 C 21.736 24.433 19.445 25.91 14.507 25.91 L 13.846 25.91 C 8.704 25.91 5.599 23.975 5.498 20.31 L 0 20.31 C 0.051 27.08 5.447 30.542 14.202 30.542 Z  M 58.64 30.135 L 58.64 25.502 L 37.567 25.502 L 37.567 17.103 L 55.688 17.103 L 55.688 12.471 L 37.567 12.471 L 37.567 5.039 L 58.233 5.039 L 58.233 0.407 L 32.323 0.407 L 32.323 30.084 L 58.64 30.135 Z  M 89.793 25.502 L 89.793 30.135 L 63.476 30.135 L 63.476 0.407 L 89.386 0.407 L 89.386 5.039 L 68.719 5.039 L 68.719 12.522 L 86.841 12.522 L 86.841 17.154 L 68.719 17.154 L 68.719 25.502 L 89.793 25.502 Z  M 108.678 30.135 C 118.095 30.135 124 24.586 124 15.271 C 124 6.007 118.044 0.407 108.678 0.407 L 94.629 0.407 L 94.629 30.084 L 108.678 30.084 L 108.678 30.135 Z  M 99.872 25.502 L 108.271 25.502 C 115.245 25.502 118.757 22.041 118.757 15.271 C 118.757 8.501 115.194 5.039 108.22 5.039 L 99.821 5.039 L 99.872 25.502 Z " fill-rule="evenodd" fill="rgb(0,0,0)"/></g></svg>